<svg xmlns="http://www.w3.org/2000/svg" viewBox="0 0 477.867 477.867"><path d="M238.933 0C106.974 0 0 106.974 0 238.933s106.974 238.933 238.933 238.933 238.933-106.974 238.933-238.933S370.893 0 238.933 0zm115.076 250.356c-.397.441-.817.861-1.258 1.258l-170.667 153.6c-7.128 6.167-17.906 5.389-24.073-1.739-5.996-6.93-5.449-17.357 1.238-23.622l156.57-140.919-156.57-140.92c-6.879-6.444-7.231-17.244-.787-24.123 6.265-6.687 16.693-7.234 23.622-1.238l170.667 153.6c7.003 6.308 7.566 17.1 1.258 24.103z"/></svg>